<?xml version="1.0" standalone="no"?>
<!DOCTYPE svg PUBLIC "-//W3C//DTD SVG 1.1//EN" "http://www.w3.org/Graphics/SVG/1.1/DTD/svg11.dtd" >
<svg xmlns="http://www.w3.org/2000/svg">
<metadata>
Created by FontForge 20120731 at Tue May 17 10:32:22 2016
 By admin
</metadata>
<defs>
<font id="iconfont" horiz-adv-x="1024" >
  <font-face 
    font-family="iconfont"
    font-weight="500"
    font-stretch="normal"
    units-per-em="1024"
    panose-1="2 0 6 3 0 0 0 0 0 0"
    ascent="896"
    descent="-128"
    x-height="792"
    bbox="-0.5 -130 1202 891"
    underline-thickness="50"
    underline-position="-100"
    unicode-range="U+0078-E672"
  />
<missing-glyph horiz-adv-x="374" 
d="M34 0v682h272v-682h-272zM68 34h204v614h-204v-614z" />
    <glyph glyph-name=".notdef" horiz-adv-x="374" 
d="M34 0v682h272v-682h-272zM68 34h204v614h-204v-614z" />
    <glyph glyph-name=".null" horiz-adv-x="0" 
 />
    <glyph glyph-name="nonmarkingreturn" horiz-adv-x="341" 
 />
    <glyph glyph-name="x" unicode="x" horiz-adv-x="1001" 
d="M281 543q-27 -1 -53 -1h-83q-18 0 -36.5 -6t-32.5 -18.5t-23 -32t-9 -45.5v-76h912v41q0 16 -0.5 30t-0.5 18q0 13 -5 29t-17 29.5t-31.5 22.5t-49.5 9h-133v-97h-438v97zM955 310v-52q0 -23 0.5 -52t0.5 -58t-10.5 -47.5t-26 -30t-33 -16t-31.5 -4.5q-14 -1 -29.5 -0.5
t-29.5 0.5h-32l-45 128h-439l-44 -128h-29h-34q-20 0 -45 1q-25 0 -41 9.5t-25.5 23t-13.5 29.5t-4 30v167h911zM163 247q-12 0 -21 -8.5t-9 -21.5t9 -21.5t21 -8.5q13 0 22 8.5t9 21.5t-9 21.5t-22 8.5zM316 123q-8 -26 -14 -48q-5 -19 -10.5 -37t-7.5 -25t-3 -15t1 -14.5
t9.5 -10.5t21.5 -4h37h67h81h80h64h36q23 0 34 12t2 38q-5 13 -9.5 30.5t-9.5 34.5q-5 19 -11 39h-368zM336 498v228q0 11 2.5 23t10 21.5t20.5 15.5t34 6h188q31 0 51.5 -14.5t20.5 -52.5v-227h-327z" />
    <glyph glyph-name="uniE620" unicode="&#xe620;" 
d="M504 642q-85 0 -131 -57t-46 -150h89v12q0 8 4.5 28.5t12.5 36.5t26.5 28.5t44.5 12.5q89 0 89 -89q0 -27 -15 -49t-37 -38t-43.5 -34t-37 -47.5t-15.5 -68.5h89q0 24 15 47t37 42.5t43.5 40t37 48.5t15.5 59q0 178 -178 178zM504.5 880q-102.5 0 -195.5 -40
t-160.5 -107.5t-107 -161t-39.5 -196t39.5 -196t107 -161t160.5 -107.5t195.5 -40t195.5 40t160 107.5t107 161t40 196t-40 196t-107 161t-160 107.5t-195.5 40zM504.5 -40q-112.5 0 -208 55.5t-150.5 151.5t-55 208.5t55 208t150.5 151t208 55.5t207.5 -55.5t150.5 -151
t55.5 -208t-55.5 -208.5t-150.5 -151.5t-207.5 -55.5zM497 168h-14q-16 0 -27 -11t-11 -27v-14q0 -15 11 -26t27 -11h14q15 0 26 11t11 26v14q0 16 -11 27t-26 11z" />
    <glyph glyph-name="uniE621" unicode="&#xe621;" 
d="M512 389q102 0 173.5 71.5t71.5 173.5t-71.5 174t-173.5 72t-173.5 -72t-71.5 -173.5t71.5 -173.5t173.5 -72zM512 825q79 0 135 -56t56 -135t-56 -135t-135 -56t-135 56t-56 135t56 135t135 56zM649 89q0 -34 23.5 -58t57.5 -24t58 24t24 58h-163zM976 -20
q-1 8 -2.5 21.5t-11.5 53.5t-27 76t-52.5 80t-82 75.5t-121.5 53.5t-167 22q-91 0 -165.5 -21.5t-121.5 -53t-82.5 -75.5t-52.5 -80t-27.5 -75.5t-12 -53.5t-1.5 -23q-1 -5 0 -12t6.5 -26t15.5 -33.5t33 -26t54 -11.5h709q100 0 110 75q2 19 -1 34zM867 -75h-709
q-46 0 -54 46l-1 9q0 5 1.5 12.5t7 30t13.5 44t24 51t36 54.5t52 50.5t70 43.5t91 29.5t114 11.5q77 0 141 -18.5t105 -46t73 -65t48 -68.5t26.5 -65t12.5 -46l3 -18q0 -2 0.5 -6t-1.5 -13.5t-7 -16.5t-17 -13t-29 -6zM730 171h-6h12h-6z" />
    <glyph glyph-name="uniE622" unicode="&#xe622;" horiz-adv-x="1036" 
d="M816 376q0 -42 30 -72t72 -30t72 30t30 72t-30 72t-72 30t-72 -30t-30 -72zM408 376q0 -42 30 -72t72 -30t72 30t30 72t-30 72t-72 30t-72 -30t-30 -72zM0 376q0 -42 30 -72t72 -30t72 30t30 72t-30 72t-72 30t-72 -30t-30 -72z" />
    <glyph glyph-name="uniE624" unicode="&#xe624;" 
d="M960 -9l-140 139q56 61 86.5 138.5t30.5 163.5q0 91 -35.5 174t-95 143t-142.5 95.5t-174 35.5t-174 -35.5t-143 -95.5t-95.5 -143t-35.5 -174t35.5 -174t95.5 -142.5t143 -95t174 -35.5q119 0 222 59l150 -151q21 -20 49.5 -20t48.5 20.5t20 49t-20 48.5zM489.5 88
q-93.5 0 -172.5 46t-125 125.5t-46 173t46 172.5t125 125t172.5 46t173 -46t125.5 -125t46 -172.5t-46 -173t-125.5 -125.5t-173 -46z" />
    <glyph glyph-name="uniE625" unicode="&#xe625;" horiz-adv-x="1040" 
d="M176 219q-68 66 -92.5 154.5t0 177t92.5 153.5q105 101 253.5 101t253.5 -101q68 -65 92.5 -153.5t0 -177t-92.5 -154.5q-105 -100 -253.5 -100t-253.5 100v0zM1024 -60l-268 257q71 80 93.5 181t-8 200.5t-108.5 174.5q-62 59 -140.5 89.5t-162.5 30.5t-163 -30.5
t-141 -89.5q-83 -79 -112 -185t0 -212t112 -185q62 -60 141 -90.5t163 -30.5q153 0 275 99l269 -257zM1024 -60z" />
    <glyph glyph-name="uniE626" unicode="&#xe626;" 
d="M607 376v6l368 376q21 21 21 50.5t-20.5 50.5t-49.5 21t-50 -21l-358 -364l-364 363q-21 22 -50.5 22t-51 -21.5t-21.5 -51t21 -50.5l381 -381l-381 -381q-21 -21 -21 -50.5t21.5 -51t51 -21.5t50.5 21l367 368l355 -361q21 -21 50 -21t49.5 21t20.5 50.5t-21 50.5z" />
    <glyph glyph-name="uniE627" unicode="&#xe627;" 
d="M504.5 880q-102.5 0 -196 -40t-161 -107.5t-107 -161t-39.5 -196t39.5 -195.5t107 -160.5t161 -107.5t196 -40t195.5 40t160.5 107.5t107.5 160.5t40 195.5t-40 196t-107.5 161t-160.5 107.5t-195.5 40zM655 256q7 -7 7 -16t-6.5 -15.5t-15.5 -6.5t-16 7l-120 120
l-120 -120q-6 -7 -15 -7t-15.5 6.5t-6.5 15.5t6 16l120 120l-120 120q-6 6 -6 15t6.5 15.5t15.5 6.5t15 -6l120 -120l120 120q7 6 16 6t15.5 -6.5t6.5 -15.5t-7 -15l-120 -120z" />
    <glyph glyph-name="uniE628" unicode="&#xe628;" 
d="M971 880h-917v-518v-30q0 -93 36 -178t97.5 -146.5t146.5 -97.5t178 -36t178 36t146.5 97.5t98 146.5t36.5 178q0 15 -1 30h1v518zM648 282q9 -8 9 -20.5t-9 -21t-21 -8.5t-21 9l-94 94l-94 -94q-9 -9 -21 -9t-20.5 8.5t-8.5 21t8 20.5l94 95l-94 94q-8 8 -8 20.5t8.5 21
t20.5 8.5t21 -8l94 -95l94 95q9 8 21 8t21 -8.5t9 -21t-9 -20.5l-94 -94z" />
    <glyph glyph-name="uniE629" unicode="&#xe629;" 
d="M669 397h-121v121q0 14 -9.5 23.5t-23 9.5t-23.5 -9.5t-10 -23.5v-121h-120q-14 0 -23.5 -9.5t-9.5 -23t9.5 -23t23.5 -9.5h120v-121q0 -13 10 -23t23.5 -10t23 10t9.5 23v121h121q13 0 23 9.5t10 23t-10 23t-23 9.5zM504.5 880q-102.5 0 -196 -40t-161 -107.5
t-107.5 -161t-40 -196t40 -196t107.5 -161t161 -107t196 -39.5t196 39.5t161 107t107 161t39.5 196t-39.5 196t-107 161t-161 107.5t-196 40zM504.5 -63q-89.5 0 -170.5 35t-139.5 93.5t-93.5 139.5t-35 170.5t35 170.5t93.5 139.5t139.5 93.5t170.5 35t170.5 -35
t139.5 -93.5t93.5 -139.5t35 -170.5t-35 -170.5t-93.5 -139.5t-139.5 -93.5t-170.5 -35z" />
    <glyph glyph-name="uniE62B" unicode="&#xe62b;" horiz-adv-x="1040" 
d="M1007.5 700.5q-16.5 16.5 -39.5 16.5t-40 -16l-515 -516l-317 317q-17 17 -40 17t-39.5 -16.5t-16.5 -40t16 -39.5l357 -357q17 -16 40 -16t40 16l555 555q16 17 16 40t-16.5 39.5z" />
    <glyph glyph-name="uniE62C" unicode="&#xe62c;" 
d="M504.5 880q-102.5 0 -195.5 -40t-160.5 -107.5t-107.5 -160.5t-40 -195.5t40 -195.5t107.5 -160.5t160.5 -107t195.5 -39.5t195.5 39.5t160.5 107t107 160.5t39.5 195.5t-39.5 195.5t-107 160.5t-160.5 107.5t-195.5 40zM700 334h-153v-153q0 -15 -10 -25t-24 -10t-24 10
t-10 25v153h-154q-14 0 -24 10t-10 24t10 24t24 10h154v154q0 14 10 24t24 10t24 -10t10 -24v-154h153q15 0 25 -10t10 -24t-10 -24t-25 -10z" />
    <glyph glyph-name="uniE62D" unicode="&#xe62d;" 
d="M842 454.5q-19 10.5 -41 4.5t-33 -26l-200 -344v731q0 25 -16 42.5t-39 17.5q-22 0 -38 -17.5t-16 -42.5v-736l-203 349q-12 20 -33.5 26t-40.5 -4.5t-24.5 -32.5t6.5 -42l280 -481q9 -16 25.5 -23.5t33.5 -3.5q5 -1 10 -1t9 1q17 -3 33 4.5t25 22.5l280 481
q12 20 6.5 42t-24.5 32.5z" />
    <glyph glyph-name="uniE62E" unicode="&#xe62e;" horiz-adv-x="1038" 
d="M669 97h-55q-31 0 -53 -22t-22 -52v-56q0 -31 22 -52.5t53 -21.5h55q31 0 53 21.5t22 52.5v56q0 30 -22 52t-53 22zM409 97h-55q-31 0 -53 -22t-22 -52v-56q0 -31 22 -52.5t53 -21.5h55q31 0 53 21.5t22 52.5v56q0 30 -22 52t-53 22zM131 97h-56q-30 0 -52 -22t-22 -52
v-56q0 -31 22 -52.5t52 -21.5h56q31 0 52.5 21.5t21.5 52.5v56q0 30 -21.5 52t-52.5 22zM948 357h-56q-31 0 -52.5 -22t-21.5 -52v-316q0 -31 21.5 -52.5t52.5 -21.5h56q31 0 52.5 21.5t21.5 52.5v316q0 30 -21.5 52t-52.5 22zM669 357h-55q-31 0 -53 -22t-22 -52v-56
q0 -31 22 -52.5t53 -21.5h55q31 0 53 21.5t22 52.5v56q0 30 -22 52t-53 22zM409 357h-55q-31 0 -53 -22t-22 -52v-56q0 -31 22 -52.5t53 -21.5h55q31 0 53 21.5t22 52.5v56q0 30 -22 52t-53 22zM131 357h-56q-30 0 -52 -22t-22 -52v-56q0 -31 22 -52.5t52 -21.5h56
q31 0 52.5 21.5t21.5 52.5v56q0 30 -21.5 52t-52.5 22zM929 877h-835q-39 0 -66 -27.5t-27 -65.5v-279q0 -38 27 -65.5t66 -27.5h835q39 0 66 27.5t27 65.5v279q0 38 -27 65.5t-66 27.5z" />
    <glyph glyph-name="uniE62F" unicode="&#xe62f;" 
d="M728 384v80h-134l113 122l-64 40l-117 -150l-95 150l-64 -40l92 -122h-135l1 -80h161v-81h-161l-1 -81h162v-108h81v108h161v81h-161v81h161zM513 788q123 0 223.5 -67.5t147.5 -177.5l6 2q1 -11 9.5 -19t20.5 -8h20q13 0 22 9t9 21v237q0 12 -9 21t-22 9h-20
q-12 0 -21 -9t-9 -21v-97q-68 84 -166.5 132t-210.5 48q-123 0 -229 -56.5t-173 -155t-80 -218.5h81q20 149 134 249.5t267 100.5zM913 330q-20 -149 -134 -249.5t-266 -100.5q-123 0 -223.5 67.5t-147.5 176.5l-6 -2q-1 12 -10 19.5t-20 7.5h-21q-12 0 -21 -9t-9 -21v-236
q0 -13 9 -21.5t21 -8.5h21q12 0 21 8.5t9 21.5v95q68 -83 166.5 -131t210.5 -48q122 0 228 57t173 155.5t80 218.5h-81z" />
    <glyph glyph-name="uniE630" unicode="&#xe630;" 
d="M394 27q16 0 27.5 11.5t11.5 27.5v336q0 16 -11.5 27t-27.5 11t-27.5 -11t-11.5 -27v-336q0 -16 11.5 -27.5t27.5 -11.5zM962 750h-64h-288q4 13 4 26q0 43 -30.5 73.5t-73 30.5t-73 -30.5t-30.5 -73.5q0 -13 3 -26h-287h-65q-16 0 -27 -11t-11 -27t11 -27.5t27 -11.5h65
v-620q0 -75 53 -128t128 -53h413q75 0 128 53t53 128v620h65q16 0 27 11.5t11 27.5t-11 27t-28 11zM510.5 802q10.5 0 18 -7.5t7.5 -18t-7.5 -18.5t-18 -8t-18 7.5t-7.5 18.5t7.5 18.5t18 7.5zM820 105q0 -65 -45 -110t-110 -45h-310q-64 0 -109.5 45t-45.5 110v568h620
v-568zM627 27q16 0 27 11.5t11 27.5v336q0 16 -11 27t-27 11t-27.5 -11t-11.5 -27v-336q0 -16 11.5 -27.5t27.5 -11.5z" />
    <glyph glyph-name="uniE631" unicode="&#xe631;" 
d="M505 525q22 0 51.5 -25.5t37.5 -63.5l88 59q-2 3 -5 8.5t-15 20.5t-24.5 27.5t-32.5 27t-41 23.5v71h-89v-61q-37 -4 -62 -18.5t-36.5 -37t-15.5 -43t-4 -47.5q0 -35 17.5 -63t44 -44t57 -30t56.5 -22.5t44 -21t18 -26.5q0 -17 -4.5 -28.5t-10 -18t-18.5 -9t-22 -3
t-28 -0.5h-6q-24 0 -38.5 22t-17.5 44l-3 22l-89 -59q2 -3 5 -9.5t14.5 -24t24 -32t33 -28.5t41.5 -20v-92h89v93q118 24 118 143q0 38 -24.5 65.5t-59 42.5t-69.5 28t-59 30t-24 41q0 19 5.5 32t15.5 18.5t18 7t20 1.5zM505 880q-102 0 -195 -40t-160.5 -107.5
t-107.5 -160.5t-40 -195t40 -195t107.5 -160.5t160.5 -107t195 -39.5t195 39.5t160.5 107t107 160.5t39.5 195t-39.5 195t-107 160.5t-160.5 107.5t-195 40zM504.5 -37q-112.5 0 -207.5 55.5t-150.5 151t-55.5 208t55.5 207.5t150.5 150.5t207.5 55.5t208 -55.5t151 -150.5
t55.5 -207.5t-55.5 -208t-151 -151t-208 -55.5z" />
    <glyph glyph-name="uniE632" unicode="&#xe632;" horiz-adv-x="1026" 
d="M956 445l-434 435l-412 -66l-44 -43l-65 -412l434 -434q54 -54 130.5 -54t130.5 54l260 260q54 54 54 130.5t-54 129.5zM847 207l-173 -174q-45 -45 -108.5 -45t-108.5 45l-347 347l43 304l43 44l304 43l347 -347q45 -45 45 -108.5t-45 -108.5zM283 597q-27 -27 -27 -65
t27 -65t65 -27t65 27t27 65t-27 65t-65 27t-65 -27z" />
    <glyph glyph-name="uniE633" unicode="&#xe633;" 
d="M735 146q9 2 15 9.5t6 17.5q0 12 -9 20l3 10q-112 106 -293 106q-69 0 -128 -15t-101 -38.5t-75.5 -57.5t-54.5 -67t-36.5 -72t-22.5 -67.5t-11 -59t-4.5 -41t-0.5 -17.5h639l1 3q6 -3 12 -3q11 0 19 8t8 19t-8 19t-19 8h-3h-568q0 5 0.5 13t4 30.5t9 44t18 50.5t29.5 54
t44.5 50.5t61 43.5t82 29t104.5 11q154 0 246 -86q3 -18 20 -22q5 -5 9 -10zM457.5 336q112.5 0 192 79.5t79.5 192t-79.5 192.5t-192 80t-192 -80t-79.5 -192.5t79.5 -192t192 -79.5zM457.5 825q90.5 0 154 -63.5t63.5 -153.5t-63.5 -154t-154 -64t-154 64t-63.5 154
t63.5 153.5t154 63.5zM993 28.5q-8 8.5 -19 8.5t-19 -9l-63 -68v240q0 11 -8 19t-19 8t-19 -8t-8 -19v-240l-63 68q-8 9 -19 9t-19 -8.5t-8 -21t8 -20.5l95 -104q11 -12 26 -8q4 -1 7.5 -1t6.5 1q15 -4 26 8l95 104q8 8 8 20.5t-8 21zM267.5 -44q33.5 0 57.5 24t24 57h-163
q0 -34 24 -57.5t57.5 -23.5z" />
    <glyph glyph-name="uniE634" unicode="&#xe634;" horiz-adv-x="1040" 
d="M1016.5 121q-7.5 8 -18 8t-17.5 -8l-59 -65v226q0 11 -7.5 18.5t-18.5 7.5t-18.5 -7.5t-7.5 -18.5v-226l-59 65q-7 8 -17.5 8t-18 -8t-7.5 -19.5t8 -20.5l89 -98q11 -11 25 -7q3 -1 6 -1t6 1q14 -4 25 7l90 98q7 9 7 20.5t-7.5 19.5zM691 27h-460q-74 0 -126.5 52
t-52.5 127v255h921v-102q0 -11 7.5 -18.5t18 -7.5t18 7.5t7.5 18.5v230q0 85 -60 145t-145 60h-613q-85 0 -145 -60t-60 -145v-89v-26v-294q0 -85 60 -145t145 -60h485q11 0 18.5 7.5t7.5 18.5t-7.5 18.5t-18.5 7.5zM52 564q0 74 52.5 126.5t126.5 52.5h563
q74 0 126.5 -52.5t52.5 -126.5v-52h-921v52zM129 359q-11 0 -18.5 -7.5t-7.5 -18t7.5 -18t18.5 -7.5h307q10 0 17.5 7.5t7.5 18t-7.5 18t-17.5 7.5h-307z" />
    <glyph glyph-name="uniE635" unicode="&#xe635;" horiz-adv-x="1042" 
d="M818 51l-62 -68v238q0 11 -8 19t-19 8t-19 -8t-8 -19v-238l-62 68q-8 8 -19 8t-19 -8.5t-8 -20.5t8 -21l95 -103q11 -12 26 -8q3 -1 6.5 -1t6.5 1q15 -4 26 8l94 103q8 9 8 21t-8 20.5t-19 8.5t-19 -8zM352 760q-12 0 -19.5 -7.5t-7.5 -19t7.5 -19t19.5 -7.5h54
q11 0 19 7.5t8 19t-8 19t-19 7.5h-54zM837 572h-81v108q0 78 -55 133t-134 55h-377q-78 0 -133.5 -55t-55.5 -133v-621q0 -75 53.5 -118.5t135.5 -43.5h377q12 0 19.5 8t7.5 19.5t-7.5 19t-19.5 7.5v3q-13 -3 -27 -3h-323q-60 0 -105 38.5t-55 96.5h483q12 0 19.5 8t7.5 19
t-7.5 19t-19.5 8h-485v513q0 67 47.5 114t114.5 47h323q67 0 114.5 -47t47.5 -114v-324q0 -11 8 -19t19 -8t19 8t8 19v189h54q67 0 114.5 -47.5t47.5 -114.5v-243q0 -72 -54 -120v-77q49 23 78.5 69t29.5 101v297q0 78 -55.5 133.5t-133.5 55.5z" />
    <glyph glyph-name="uniE636" unicode="&#xe636;" 
d="M505 720q-11 0 -19 -7.5t-8 -18.5v-318q0 -11 8 -19t19 -8h265q11 0 18.5 8t7.5 19t-7.5 18.5t-18.5 7.5h-239v292q0 11 -7.5 18.5t-18.5 7.5zM1001 22.5q-8 8.5 -19 8.5t-18 -8l-62 -67v234q0 11 -7.5 19t-18.5 8t-19 -8t-8 -19v-234l-61 67q-7 8 -18 8t-19 -8.5
t-8 -20.5t8 -20l93 -102q11 -11 25 -7q4 -1 7 -1t7 1q14 -4 25 7l93 102q8 8 8 20t-8 20.5zM668 -49l-1 4q-78 -30 -162 -30q-92 0 -175.5 35.5t-144 96t-96 144t-35.5 175.5t35.5 175t96 143.5t144 96.5t175 36t175 -36t144 -96.5t96 -143.5t35.5 -175q0 -27 -3 -53h3
q0 -11 8 -19t19 -8t19 8t8 19q0 5 -2 10q2 21 2 43q0 102 -40 195.5t-107.5 161t-161 107.5t-196 40t-195.5 -40t-160.5 -107.5t-107.5 -161t-40 -196t40 -195.5t107.5 -160.5t160.5 -107.5t196 -40q83 0 162 27q6 0 11 4l3 1v1q9 8 9 20q0 10 -6.5 17.5t-15.5 8.5z" />
    <glyph glyph-name="uniE638" unicode="&#xe638;" 
d="M64 416h1q8 114 69 209.5t161 151t216 55.5q137 0 249 -76t163 -199l5 2q2 -11 10 -18t19 -7q12 0 21 9t9 21v238q0 12 -9 21t-21 9t-21 -9t-9 -21v-130q-69 101 -179 160t-237 59q-131 0 -243.5 -62t-182 -169t-79.5 -236q-1 -4 -1 -9q0 -12 8.5 -21t21 -9t21 9t8.5 21
v1zM987 356q-12 0 -21 -9t-9 -21h-4q-14 -108 -76 -196.5t-158.5 -139.5t-207.5 -51q-123 0 -227 62t-162 165l-58 -27v-230q0 -12 9 -20.5t21.5 -8.5t21 8.5t8.5 20.5v150q71 -84 171.5 -131.5t215.5 -47.5q124 0 232.5 56t178.5 154t89 218q6 8 6 18q0 12 -9 21t-21 9z
M510.5 623q-12.5 0 -21 -8.5t-8.5 -20.5v-238q0 -13 8.5 -21.5t21.5 -8.5h208q12 0 21 8.5t9 21t-9 21t-21 8.5h-178v209q0 12 -9 20.5t-21.5 8.5z" />
    <glyph glyph-name="uniE639" unicode="&#xe639;" 
d="M337 344h-200q-56 0 -95 -39t-39 -95v-201q0 -55 39 -94.5t95 -39.5h200q56 0 95 39.5t39 94.5v201q0 56 -39 95t-95 39zM404 43q0 -42 -29 -71.5t-71 -29.5h-134q-41 0 -70.5 29.5t-29.5 71.5v134q0 41 29.5 70.5t70.5 29.5h134q42 0 71 -29.5t29 -70.5v-134zM973.5 -58
q-13.5 0 -23.5 -9.5t-10 -23.5t10 -24t23.5 -10t23.5 10t10 24t-10 23.5t-23.5 9.5zM271 746h-67q-28 0 -47.5 -20t-19.5 -47v-67q0 -28 19.5 -47.5t47.5 -19.5h67q27 0 46.5 19.5t19.5 47.5v67q0 27 -19.5 47t-46.5 20zM337 880h-200q-56 0 -95 -39.5t-39 -94.5v-201
q0 -56 39 -95t95 -39h200q56 0 95 39t39 95v201q0 55 -39 94.5t-95 39.5zM404 578q0 -41 -29 -70.5t-71 -29.5h-134q-41 0 -70.5 29.5t-29.5 70.5v134q0 42 29.5 71.5t70.5 29.5h134q42 0 71 -29.5t29 -71.5v-134zM873 880h-201q-55 0 -94.5 -39.5t-39.5 -94.5v-201
q0 -56 39.5 -95t94.5 -39h201q56 0 95 39t39 95v201q0 55 -39 94.5t-95 39.5zM940 578q0 -41 -29.5 -70.5t-70.5 -29.5h-134q-42 0 -71.5 29.5t-29.5 70.5v134q0 42 29.5 71.5t71.5 29.5h134q41 0 70.5 -29.5t29.5 -71.5v-134zM806 746h-67q-28 0 -47.5 -20t-19.5 -47v-67
q0 -28 19.5 -47.5t47.5 -19.5h67q28 0 47.5 19.5t19.5 47.5v67q0 27 -19.5 47t-47.5 20zM605 210q-14 0 -23.5 -10t-9.5 -23.5t9.5 -23.5t23.5 -10h67q14 0 24 10t10 24v100h33q14 0 24 10t10 23.5t-10 23.5t-24 10h-134q-14 0 -23.5 -10t-9.5 -23.5t9.5 -23.5t23.5 -10h34
v-67h-34zM973.5 344q-13.5 0 -23.5 -10t-10 -24v-234h-134q-9 0 -17 -4q-7 4 -16 4q-14 0 -24 -9.5t-10 -23.5v-101h-100v67q0 14 -10 24t-24 10t-23.5 -10t-9.5 -24v-100q0 -14 9.5 -24t23.5 -10h168q13 0 23 10t10 24v100h167q14 0 24 10t10 24v267q0 14 -10 24t-23.5 10z
M806 143q14 0 24 10t10 23.5t-10 23.5t-24 10t-23.5 -10t-9.5 -23.5t9.5 -23.5t23.5 -10zM271 210h-67q-28 0 -47.5 -19.5t-19.5 -47.5v-67q0 -28 19.5 -47.5t47.5 -19.5h67q27 0 46.5 19.5t19.5 47.5v67q0 28 -19.5 47.5t-46.5 19.5z" />
    <glyph glyph-name="uniE63A" unicode="&#xe63a;" horiz-adv-x="1041" 
d="M214.5 42q25.5 0 45 16.5t24.5 40.5h-139q5 -24 24.5 -40.5t45 -16.5zM385 384q100 0 171 70.5t71 171t-71 171t-171 70.5t-171 -70.5t-71 -171t71 -171t171 -70.5zM384.5 810q76.5 0 131 -54t54.5 -130.5t-54.5 -130.5t-131 -54t-130.5 54t-54 130.5t54 130.5t130.5 54z
M1000 157q-11 12 -13 16q-1 4 2 22q6 34 -4.5 49.5t-44.5 19.5q-16 3 -19.5 5.5t-10.5 18.5q-15 32 -32 38q-5 1 -11 1q-13 0 -35 -12q-16 -9 -20.5 -9t-19.5 9q-23 12 -35 12q-6 0 -11 -2q-18 -5 -32 -37q-8 -16 -11 -18.5t-20 -5.5q-34 -4 -44.5 -19t-4.5 -50q3 -18 2 -22
t-13 -16q-25 -24 -25 -43.5t25 -43.5q12 -12 13 -16t-2 -22q-6 -34 4.5 -49.5t44.5 -19.5q17 -3 20 -5.5t11 -17.5q14 -33 32 -38q5 -2 11 -2q12 0 35 12q15 9 19.5 9t20.5 -9q22 -12 35 -12q5 0 11 2q17 6 32 38q7 15 10.5 17.5t19.5 5.5q34 4 44.5 19.5t4.5 49.5
q-3 18 -2 22t13 16q25 24 25 43.5t-25 43.5zM956 99q-17 -17 -20.5 -28.5t0.5 -36.5q3 -15 2 -18q-3 -1 -16 -3q-24 -4 -34 -11q-10 -8 -20 -30q-6 -12 -8 -15q-3 1 -14 6q-21 13 -34 13t-35 -13q-10 -5 -13 -6q-3 3 -8 15q-10 22 -20 30q-10 7 -35 11q-12 1 -15 3
q-1 4 1 19q5 24 1 36q-4 11 -21 28q-12 12 -12 14.5t12 14.5q17 17 21 29q4 11 -1 36q-2 15 -1 18q2 2 15 3q24 4 35 12q9 7 20 29q5 12 8 15q3 -1 13 -6q22 -12 35 -12t34 12q10 5 14 6q2 -3 8 -15q10 -22 20 -29q10 -8 34 -12q13 -1 16 -3q0 -3 -2 -18q-4 -25 -0.5 -36.5
t20.5 -28.5q12 -12 12 -14.5t-12 -14.5zM385 298q82 0 144 -32l4 5q4 -1 8 -1q12 0 20.5 8.5t8.5 20t-8.5 20t-20.5 8.5h-1q-69 28 -155 28q-78 0 -141.5 -22.5t-102.5 -55t-68 -78t-42 -83t-20.5 -79t-8.5 -56.5t-1 -24h538h2q12 0 20.5 8.5t8.5 20t-8.5 20t-20.5 8.5
q-3 0 -7 -1v1h-448q0 5 0.5 12t3.5 27t8 38.5t15.5 44.5t24.5 47.5t37.5 43.5t52 37.5t69 25t88.5 8.5zM210 185h9h-5h-4zM811.5 213q-41.5 0 -70.5 -29t-29 -70.5t29 -70.5t70.5 -29t71 29t29.5 70.5t-29.5 70.5t-71 29zM811.5 71q-17.5 0 -30 12.5t-12.5 30t12.5 30
t30 12.5t30 -12.5t12.5 -30t-12.5 -30t-30 -12.5z" />
    <glyph glyph-name="uniE642" unicode="&#xe642;" horiz-adv-x="1030" 
d="M954 570l-216 184q-54 45 -125 40t-118 -58l-108 -124l-35 23q-23 23 -46 23q-12 0 -23 -6t-17 -11l-5 -6l-183 -137h-23q-1 0 -4.5 -0.5t-11 -2.5t-13.5 -6.5t-11 -14t-5 -22.5v-228q0 -12 4.5 -21t11.5 -13.5t13.5 -7.5t11.5 -3h4h206q5 -1 11 2l197 -167
q54 -45 125 -40t117 58l262 299q46 53 40.5 123t-59.5 116zM55 270v137q0 20 11.5 31.5t23.5 12.5l11 1l23 23l151 118q22 19 31 19q3 0 7.5 -2t9.5 -5.5t9 -6.5t7 -5l3 -3l119 -81q1 0 2.5 -1.5t4.5 -5.5t5 -8.5t1 -11t-5 -13.5q-6 -10 -16 -12.5t-17 0.5l-7 2l-100 71
q-1 1 -2.5 2t-5.5 3t-7.5 2.5t-8 -0.5t-8.5 -4q-14 -15 -5 -30l-58 -66q-40 -46 -41.5 -106.5t34.5 -106.5h-126q-13 0 -22 5t-13.5 11t-7 14t-3 11t-0.5 5zM512 452q1 3 3 7l1 -1l65 -56l-37 -42l-64 56l-1 1q19 10 33 35zM929 368l-261 -299q-31 -35 -78.5 -38.5
t-83.5 26.5l-217 184q-36 30 -39.5 77t27.5 82l60 68l61 -41q17 -13 39 -17q-6 -8 -5 -19.5t10 -18.5l65 -55l-56 -64l43 -37l56 64l65 -55q9 -8 21 -7t19.5 10t7 20.5t-9.5 19.5l-66 55l38 43l65 -56q9 -7 21 -6t19.5 9.5t6.5 20.5t-10 19l-43 37l140 30l-25 58l-140 -30
l10 141l-62 15l-10 -141l-43 37q-16 13 -34 3q-3 12 -10.5 22t-14.5 15l-6 4l-55 36l105 119q31 35 78 38.5t83 -26.5l217 -184q36 -30 39.5 -77t-27.5 -82zM480 384h64h-64zM512 384v0v0zM512 384v0v0zM512 384v0v0z" />
    <glyph glyph-name="uniE643" unicode="&#xe643;" horiz-adv-x="1040" 
d="M512 562q-85 0 -145 -60t-60 -145.5t60 -146t145 -60.5t145 60.5t60 146t-60 145.5t-145 60zM964 686h-246v47q0 25 -17.5 43t-42.5 18h-292q-25 0 -42.5 -18t-17.5 -43v-47h-246q-25 0 -42.5 -14t-17.5 -33v-617q0 -20 17.5 -34t42.5 -14h904q25 0 42.5 14t17.5 34v617
q0 19 -17.5 33t-42.5 14zM512 76q-116 0 -197.5 82t-81.5 198t81.5 198t197.5 82t197.5 -82t81.5 -198t-81.5 -198t-197.5 -82z" />
    <glyph glyph-name="uniE644" unicode="&#xe644;" horiz-adv-x="1040" 
d="M782.5 327q-17.5 0 -30 -12.5t-12.5 -30t12.5 -30t30 -12.5t30 12.5t12.5 30t-12.5 30t-30 12.5zM996 441v85q0 77 -51.5 134t-127.5 64q-18 63 -71 103.5t-120 40.5h-427q-67 0 -119.5 -40t-71.5 -103h-8v-57v-227v-370q0 -80 56.5 -125.5t142.5 -45.5h597
q83 0 141.5 58.5t58.5 141.5v28q3 0 7.5 0.5t12.5 7.5t8 20v256q0 14 -7 21t-14 8h-7zM228 811h369q47 0 86.5 -23.5t61.5 -62.5h-665q22 39 61.5 62.5t86.5 23.5zM768 -43h-540q-71 0 -121 50t-50 121v540h142v-455q0 -11 8.5 -19.5t20 -8.5t20 8.5t8.5 19.5v455h512
q71 0 121 -50t50 -120v-57h-228q-35 0 -60 -25t-25 -60v-143q0 -35 25 -60t60 -25h228q0 -71 -50 -121t-121 -50zM967 213q0 -13 -7 -20t-14 -8h-7h-171q-35 0 -60 25t-25 60v29q0 35 25 60t60 25h171q3 0 7.5 -1.5t12.5 -8.5t8 -18v-143zM227.5 156q-11.5 0 -20 -8
t-8.5 -20v-57q0 -12 8.5 -20t20 -8t20 8t8.5 20v57q0 12 -8.5 20t-20 8z" />
    <glyph glyph-name="uniE645" unicode="&#xe645;" horiz-adv-x="1040" 
d="M819 793h-614q-85 0 -145 -60t-60 -145v-90v-25v-295q0 -85 60 -145t145 -60h614q85 0 145 60t60 145v410q0 85 -60 145t-145 60zM230 741h563q75 0 127.5 -52.5t52.5 -126.5v-51h-922v51q0 74 52.5 126.5t126.5 52.5zM793 24h-563q-74 0 -126.5 52.5t-52.5 127.5v256
h922v-256q0 -75 -52.5 -127.5t-127.5 -52.5z" />
    <glyph glyph-name="uniE646" unicode="&#xe646;" horiz-adv-x="1188" 
d="M1110 113q0 4 -1 7q5 16 -8 27l-108 99q-9 8 -21.5 8t-21.5 -8t-9 -19.5t9 -19.5l71 -66h-419q-12 0 -20 -8t-8 -20t8 -20t20 -8h480q12 0 20 8t8 20zM941 848h-678q-94 0 -160 -66t-66 -160v-452q0 -94 66 -160.5t160 -66.5h283q11 0 19.5 8.5t8.5 20t-8.5 20t-19.5 8.5
h-255q-82 0 -140 58t-58 140v283h1018v-198q0 -12 8.5 -20t20 -8t20 8t8.5 20v339q0 94 -66.5 160t-160.5 66zM1111 537h-1018v57q0 82 58 140t140 58h622q82 0 140 -58t58 -140v-57zM1139 57h-479q-12 0 -20.5 -8.5t-8.5 -20.5q0 -3 1 -7q-4 -15 8 -27l108 -99q9 -8 22 -8
t21.5 8t8.5 20t-9 20l-71 65h419q12 0 20 8.5t8 20t-8 20t-20 8.5z" />
    <glyph glyph-name="uniE647" unicode="&#xe647;" horiz-adv-x="1036" 
d="M990 445l-270 270q-19 31 -40.5 42t-35.5 -0.5t-14 -41.5v-30l240 -240q3 -2 8 -7t13.5 -20.5t8.5 -32.5t-7.5 -32t-15.5 -21l-7 -7l-240 -240v-30q0 -18 3.5 -28.5t10.5 -12.5t13.5 -1t18 8.5t18 12.5t17.5 14q6 5 9 7q14 12 81.5 79.5t128.5 129.5l60 61q3 3 8 7.5
t13.5 20t8.5 32.5t-7.5 32t-15.5 22zM780 385q0 17 -7.5 32t-15.5 22l-7 6l-270 270q-19 31 -40.5 42t-35.5 -0.5t-14 -41.5v-163h-60h-240q-4 0 -10 -0.5t-21.5 -5.5t-27.5 -13.5t-21.5 -27t-9.5 -43.5v-180q0 -25 9.5 -43.5t22.5 -27t26 -13.5t23 -5l9 -1h300v-137
q0 -18 3.5 -28.5t10.5 -12.5t13.5 -1t18 8.5t18 12.5t17.5 14q6 5 9 7q14 12 81.5 79.5t128.5 129.5l60 61q3 3 8 7.5t13.5 20t8.5 32.5z" />
    <glyph glyph-name="uniE648" unicode="&#xe648;" 
d="M100 430q18 155 135.5 260t275.5 105q123 0 223.5 -65t151.5 -172l15 7v-26q0 -5 3.5 -8.5t8.5 -3.5h25q5 0 8.5 3.5t3.5 8.5v244q0 5 -3.5 8.5t-8.5 3.5h-25q-5 0 -8.5 -3.5t-3.5 -8.5v-152q-63 98 -166 155.5t-224 57.5q-115 0 -215 -53t-164 -144.5t-79 -203.5
q-4 -6 -4 -13q0 -10 7 -17.5t17 -7.5t17 7.5t7 17.5h3zM609 552l-98 -122l-97 122l-49 -25l98 -122h-73q-10 0 -17.5 -7t-7.5 -17t7.5 -17t17.5 -7h97v-49l-97 1v-1q-10 0 -17.5 -7t-7.5 -17t7.5 -17.5t17.5 -7.5h97v-72v-1q0 -10 7 -17t17.5 -7t17.5 7t7 17v1v72h97v0
q10 0 17.5 7.5t7.5 17.5t-7.5 17t-17.5 7v0h-97v49h97v0q10 0 17.5 7t7.5 17t-7.5 17t-17.5 7v0h-73l98 122zM973 341v5l-3 -1q-7 12 -20 12q-19 0 -24 -18l-3 -1q-10 -103 -67 -188t-148 -134t-197 -49q-116 0 -214 60t-151 159v22l-53 -24l4 -10v-195q0 -5 4 -8.5t9 -3.5
h24q5 0 8.5 3.5t3.5 8.5v118q65 -83 160.5 -131t204.5 -48q116 0 216 53t164 144.5t79 203.5q4 6 4 13q0 5 -1 9z" />
    <glyph glyph-name="uniE649" unicode="&#xe649;" horiz-adv-x="1040" 
d="M871 614h-717q-11 0 -18.5 -7.5t-7.5 -18t7.5 -18t18.5 -7.5h717q10 0 17.5 7.5t7.5 18t-7.5 18t-17.5 7.5zM819 794h-614q-85 0 -145 -60t-60 -145v-410q0 -85 60 -145t145 -60h614q85 0 145 60t60 145v410q0 85 -60 145t-145 60zM973 205q0 -74 -52.5 -127t-126.5 -53
h-564q-74 0 -126.5 53t-52.5 127v77h231q22 0 38 -8t23 -19.5t11 -22.5t4 -19l1 -8v-26q0 -62 60 -75l16 -2h130q30 0 51 8.5t30 18t14 24t5.5 18t0.5 8.5v26q0 21 8 37t19 23t22.5 11.5t19.5 4.5l8 1h230v-77zM973 333h-256q-29 0 -50 -10.5t-30.5 -25.5t-15 -30.5
t-6.5 -25.5v-11v-25q0 -2 -0.5 -5.5t-3.5 -12.5t-7.5 -15.5t-15 -12t-25.5 -5.5h-102q-23 -1 -35.5 12t-14.5 26l-1 13v25q0 29 -10.5 50t-25.5 30.5t-30.5 15t-25.5 6.5l-11 1h-256v230q0 75 52.5 127.5t126.5 52.5h564q74 0 126.5 -52.5t52.5 -127.5v-230zM871 486h-717
q-11 0 -18.5 -7.5t-7.5 -18t7.5 -18t18.5 -7.5h717q10 0 17.5 7.5t7.5 18t-7.5 18t-17.5 7.5z" />
    <glyph glyph-name="uniE64A" unicode="&#xe64a;" horiz-adv-x="1042" 
d="M498 503q-81 0 -138.5 -57.5t-57.5 -138.5t57.5 -138.5t138.5 -57.5t138.5 57.5t57.5 138.5t-57.5 138.5t-138.5 57.5zM498 201q-44 0 -75 31t-31 75t31 74.5t75 30.5t75 -30.5t31 -74.5t-31 -75t-75 -31zM795 714l-101 151h-362l-101 -151q-96 -4 -163.5 -74t-67.5 -167
v-332q0 -100 70.5 -171t171.5 -71h543q100 0 170.5 71t70.5 171v332q0 97 -67 167t-164 74zM936 171q0 -75 -53 -128t-128 -53h-483q-75 0 -128 53t-53 128v272q0 75 53 128t128 53h30l90 151h242l91 -151h30q75 0 128 -53t53 -128v-272z" />
    <glyph glyph-name="uniE64B" unicode="&#xe64b;" 
d="M504.5 -125q-102.5 0 -195.5 39.5t-160 107t-107 160.5t-40 195t40 195t107 160.5t160 107.5t195.5 40t195.5 -40t160 -107.5t107 -160.5t40 -195t-40 -195t-107 -160.5t-160 -107t-195.5 -39.5zM504 785q-111 0 -205 -54.5t-148.5 -148.5t-54.5 -205t54.5 -205
t148.5 -148.5t205 -54.5t205 54.5t149 148.5t55 205t-55 205t-149 148.5t-205 54.5zM715 166q-9 -9 -21.5 -9t-21.5 9l-168 168l-167 -168q-9 -9 -21.5 -9t-21.5 9t-9 22t9 22l167 167l-167 168q-9 9 -9 21.5t9 21.5t21.5 9t21.5 -9l167 -167l168 167q9 9 21.5 9t21.5 -9
t9 -21.5t-9 -21.5l-167 -168l167 -167q9 -9 9 -22t-9 -22z" />
    <glyph glyph-name="uniE64D" unicode="&#xe64d;" 
d="M895 628h-223v168q0 34 -24.5 59t-59.5 25h-167q-35 0 -59.5 -25t-24.5 -59v-168h-224q-46 0 -78.5 -32.5t-32.5 -79.5v-55q0 -31 15 -57t41 -40v-102q0 -54 -0.5 -147.5t-0.5 -128.5q2 -32 14.5 -55t26.5 -33.5t33 -16.5t26.5 -6.5t11.5 -0.5h307v1h21q4 -1 7.5 -1
t6.5 1h182q3 -1 6.5 -1t7.5 1h133q4 0 11.5 0.5t26 6.5t33 16.5t27 33.5t13.5 54v129v147v102q26 14 41 40t15 57v55q0 47 -32.5 79.5t-79.5 32.5zM812 -69h-84v222q0 12 -8.5 20t-20 8t-19.5 -8t-8 -20v-222h-140v222q0 12 -8 20t-19.5 8t-20 -8t-8.5 -20v-223h-139v223
q0 12 -8.5 20t-20 8t-19.5 -8t-8 -20v-223h-84q-36 0 -60 22.5t-24 61.5q1 78 0 335h782v-335q1 -38 -23 -60.5t-60 -22.5zM951 461q0 -24 -16 -40t-40 -16h-782q-23 0 -39.5 16t-16.5 40v55q0 24 16.5 40t39.5 16h280v168q0 35 24.5 59.5t58.5 24.5h56q35 0 59.5 -24.5
t24.5 -59.5v-168h279q24 0 40 -16t16 -40v-55z" />
    <glyph glyph-name="uniE64E" unicode="&#xe64e;" horiz-adv-x="1040" 
d="M178 -38l46 258q4 24 -14 41l-195 183q-22 20 -12.5 47.5t39.5 31.5l269 38q26 3 37 25l121 235q13 26 43 26t44 -26l120 -235q12 -22 37 -25l270 -38q30 -4 39 -31.5t-12 -47.5l-196 -183q-18 -17 -14 -41l47 -258q5 -29 -19.5 -46t-51.5 -4l-241 122q-23 12 -45 0
l-242 -122q-26 -13 -50.5 4t-19.5 46zM535 84l238 -121q9 -4 17.5 1.5t6.5 15.5l-46 255q-4 24 14 41l193 181q8 7 4.5 16t-13.5 10l-266 38q-26 3 -37 25l-119 232q-5 9 -15 9t-14 -9l-120 -232q-11 -22 -36 -25l-267 -38q-10 -1 -13 -10t4 -16l193 -181q18 -17 14 -41
l-46 -255q-1 -10 7 -15.5t17 -1.5l239 121q22 11 45 0zM535 84z" />
    <glyph glyph-name="uniE64F" unicode="&#xe64f;" horiz-adv-x="1042" 
d="M914 495q-28 99 -107.5 173t-187.5 103q-42 39 -106 39q-48 0 -86 -30q-124 -20 -216.5 -98.5t-123.5 -188.5h-18q-3 -1 -7.5 -1t-16.5 -4t-21 -10.5t-16.5 -20.5t-7.5 -33v-91q0 -24 18 -44t33 -28t18 -8l40 -14q24 -51 62 -93v-106q0 -35 25 -60t61 -25h24
q31 0 54.5 19.5t29.5 49.5q66 -20 136 -20t136 20q6 -30 29.5 -49.5t54.5 -19.5h24q36 0 61 25t25 60v106q98 108 98 249q0 28 -5 57q62 -16 62 -92q0 -22 -10 -42t-21 -30l-10 -9l27 -27q3 1 6.5 3.5t12.5 11.5t16.5 20t13 29.5t5.5 38.5q0 43 -11 72.5t-30 43t-35.5 18.5
t-35.5 6zM513 761q24 0 43 -7.5t29 -18t16 -21.5t8 -19l2 -7q-49 24 -98 24q-21 1 -45.5 -5.5t-38.5 -12.5l-13 -6q-1 0 2 7.5t10.5 18t18 21.5t28 18.5t38.5 7.5zM782 165v-125q0 -15 -10.5 -25.5t-26.5 -10.5h-24q-15 0 -26 10.5t-11 25.5v55q-85 -43 -183 -43t-183 43
v-55q0 -15 -11 -25.5t-26 -10.5h-24q-16 0 -26.5 10.5t-10.5 25.5v125q-45 45 -71 101q-48 17 -61 23q-15 8 -24.5 17.5t-12.5 15.5l-2 6v90q0 11 7 17.5t12 7.5t7 1h51q15 95 83.5 169t168.5 105q-13 -23 -21.5 -48.5t-11.5 -40.5l-3 -15v1q9 6 23.5 14t58.5 21t89 13
t88 -12t63 -24l20 -12q-2 43 -20 88q97 -41 156.5 -124.5t59.5 -184.5q0 -131 -98 -229zM293 517q-20 0 -34.5 -14.5t-14.5 -34.5t14.5 -34.5t34.5 -14.5t34.5 14.5t14.5 34.5t-14.5 34.5t-34.5 14.5z" />
    <glyph glyph-name="uniE650" unicode="&#xe650;" horiz-adv-x="1037" 
d="M1020 -81l-420 900q-1 3 -3.5 7t-11 14.5t-18 18t-25 14t-32.5 6.5t-32.5 -6t-25.5 -15t-17.5 -17.5t-10.5 -14.5l-4 -7l-420 -900q2 -1 0.5 -7.5t6 -14.5t23.5 -8q12 0 19.5 8.5t9 13.5t1.5 8l145 300h611l144 -300q1 -3 3.5 -8t10.5 -13.5t16 -8.5q17 0 24.5 7.5
t6.5 15.5zM234 279l216 450q2 4 4 10t9 21.5t14 27.5t16 21.5t17 9.5q12 0 27 -22.5t24 -44.5l9 -23l217 -450h-553z" />
    <glyph glyph-name="uniE651" unicode="&#xe651;" 
d="M372 138v-1q-11 0 -19 -7.5t-8 -18.5t8 -19t19 -8h106v-79h53v79h106q11 0 18.5 8t7.5 19t-7.5 18.5t-18.5 7.5h-106v53h106q11 0 18.5 8t7.5 19t-7.5 18.5t-18.5 7.5h-80l106 133l-53 26l-106 -132l-106 132l-53 -26l106 -133h-79q-11 0 -19 -7.5t-8 -18.5t8 -19t19 -8
h106v-53zM849 879h-689q-66 0 -112.5 -46.5t-46.5 -112.5v-132q0 -66 46.5 -112.5t112.5 -46.5h26v-371q0 -77 54.5 -131.5t131.5 -54.5h265q77 0 131 54.5t54 131.5v371h27q66 0 112.5 46.5t46.5 112.5v132q0 66 -46.5 112.5t-112.5 46.5zM769 84q0 -66 -46.5 -112.5
t-112.5 -46.5h-212q-66 0 -112.5 46.5t-46.5 112.5v530h530v-530zM955 614q0 -55 -39 -93.5t-94 -38.5v132h40q6 0 10 4t4 10v26q0 6 -4 9.5t-10 3.5h-40h-636h-40q-5 0 -9 -3.5t-4 -9.5v-26q0 -6 4 -10t9 -4h40v-132q-55 0 -93.5 38.5t-38.5 93.5v80q0 55 38.5 93.5
t93.5 38.5h636q55 0 94 -38.5t39 -93.5v-80z" />
    <glyph glyph-name="uniE652" unicode="&#xe652;" horiz-adv-x="1038" 
d="M852 868h-398q-70 0 -120 -49.5t-50 -120.5v-57h-170q-47 0 -80.5 -33t-33.5 -80v-512q0 -47 33.5 -80t80.5 -33h227q27 0 51 12q30 -12 62 -12h398q70 0 120 50t50 120v625q0 71 -50 120.5t-120 49.5zM398 16q0 -23 -17 -39.5t-40 -16.5h-227q-24 0 -40.5 16.5
t-16.5 39.5v512q0 23 16.5 39.5t40.5 16.5h227q23 0 40 -16.5t17 -39.5v-512zM965 73q0 -47 -33 -80t-80 -33h-398q-7 0 -14 1q14 26 14 55v512q0 47 -33 80t-80 33v57q0 47 33 80.5t80 33.5h398q47 0 80 -33.5t33 -80.5v-625zM227 45q-12 0 -20 -8.5t-8 -20t8 -20t20 -8.5
t20.5 8.5t8.5 20t-8.5 20t-20.5 8.5zM871.5 491q-8.5 8 -20.5 8t-21 -8l-166 -153l-103 96q-9 8 -21 8t-20.5 -8t-8.5 -19.5t8 -19.5l124 -115q9 -8 21 -8t21 8l186 173q9 8 9 19t-8.5 19z" />
    <glyph glyph-name="uniE653" unicode="&#xe653;" horiz-adv-x="1039" 
d="M791 802h-555q-96 0 -164 -68t-68 -164v-370q0 -96 68 -164t164 -68h555q96 0 164 68t68 164v370q0 96 -68 164t-164 68zM282 709h463q67 0 117.5 -41.5t63.5 -105.5l-412 -261l-413 261q13 64 64 105.5t117 41.5zM745 61h-463q-77 0 -131 54.5t-54 130.5v209l393 -249h1
l1 -1q23 -12 45 1l393 249v-209q0 -76 -54 -130.5t-131 -54.5z" />
    <glyph glyph-name="uniE654" unicode="&#xe654;" 
d="M509.5 880q-116.5 0 -215 -57.5t-156 -156t-57.5 -215.5q0 -107 51 -202q8 -21 36 -56q19 -25 42 -48q50 -53 125 -121.5t124 -109.5t51 -42q215 155 333 310q95 118 95 269q0 117 -57.5 215.5t-156 156t-215 57.5zM840 250h-3q-6 -10 -17 -26t-46 -60t-71 -81.5
t-89.5 -76.5t-103.5 -59q-10 7 -26.5 18.5t-62.5 46.5t-85.5 69.5t-84 81t-69.5 87.5h-3q-47 88 -47 189q0 106 50.5 196t137.5 142t189.5 52t189.5 -52t138 -142t51 -196q0 -101 -48 -189zM509.5 653q-83.5 0 -142.5 -59t-59 -142.5t59 -142.5t142.5 -59t142.5 59t59 142.5
t-59 142.5t-142.5 59zM509.5 300q-62.5 0 -107 44.5t-44.5 107t44.5 107t107 44.5t107 -44.5t44.5 -107t-44.5 -107t-107 -44.5z" />
    <glyph glyph-name="uniE655" unicode="&#xe655;" horiz-adv-x="1025" 
d="M399 -23q0 -44 31 -75.5t74.5 -31.5t74.5 31.5t31 75.5v26h-211v-26zM983 109h-107v399q0 101 -49.5 186.5t-135 135.5t-186.5 50t-187 -50t-135.5 -135.5t-49.5 -186.5v-399h-106q-11 0 -19 -7.5t-8 -18.5t8 -19t19 -8h956q11 0 18.5 8t7.5 19t-7.5 18.5t-18.5 7.5z
M823 109h-637v399q0 132 93.5 225t225.5 93t225 -93t93 -225v-399z" />
    <glyph glyph-name="uniE656" unicode="&#xe656;" horiz-adv-x="1026" 
d="M751 652l-294 -294l-168 168q-9 8 -21.5 8t-21 -8.5t-8.5 -21t9 -20.5l189 -189q8 -9 20.5 -9t21.5 9l315 315q9 8 9 20.5t-9 21t-21 8.5t-21 -8zM832 880h-654q-74 0 -126 -52.5t-52 -126.5v-475q0 -74 52 -126t126 -52h178v-119h-89q-12 0 -20.5 -8.5t-8.5 -21t8.5 -21
t20.5 -8.5h446q12 0 21 8.5t9 21t-9 21t-21 8.5h-89v119h208q73 0 125.5 52t52.5 126v475q0 74 -52.5 126.5t-125.5 52.5zM564 -71h-148v119h148v-119zM950 226q0 -49 -34.5 -84t-83.5 -35h-654q-49 0 -84 35t-35 84v475q0 50 35 84.5t84 34.5h654q49 0 83.5 -34.5
t34.5 -84.5v-475z" />
    <glyph glyph-name="uniE657" unicode="&#xe657;" 
d="M769 238h-530q-6 0 -10 -4t-4 -10v-28q0 -6 4 -10t10 -4h530q6 0 10 4t4 10v28q0 6 -4 10t-10 4zM769 98h-530q-6 0 -10 -4t-4 -10v-28q0 -5 4 -9.5t10 -4.5h530q6 0 10 4.5t4 9.5v28q0 6 -4 10t-10 4zM783 880h-558q-92 0 -157.5 -65.5t-65.5 -158.5v-558
q0 -92 65.5 -157.5t157.5 -65.5h558q93 0 158.5 65.5t65.5 157.5v558q0 93 -65.5 158.5t-158.5 65.5zM951 126q0 -81 -57.5 -138t-137.5 -57h-503q-81 0 -138 57t-57 138v502q0 81 57 138.5t138 57.5h503q80 0 137.5 -57.5t57.5 -138.5v-502zM393 462v-1q-12 0 -20 -8
t-8 -19.5t8 -20t20 -8.5h83v-84h56v84h84q12 0 20 8.5t8 20t-8 19.5t-20 8h-84v56h84q12 0 20 8t8 19.5t-8 20t-20 8.5h-56l84 111l-56 28l-84 -111l-83 111l-56 -28l84 -111h-56q-12 0 -20 -8.5t-8 -20t8 -19.5t20 -8h83v-56z" />
    <glyph glyph-name="uniE658" unicode="&#xe658;" horiz-adv-x="1037" 
d="M751 69l-24 17q-15 10 -27 -1l-13 -12l5 -4l12 12q9 8 18 1l25 -17q9 -7 1 -14l-29 -28q-9 -8 -18 -1l-25 17q-9 7 -1 14l8 8l-4 4l-9 -8q-5 -5 -4.5 -11.5t6.5 -10.5l25 -17q14 -10 27 1l29 28q5 5 4.5 11.5t-6.5 10.5zM698 54l-2 -2l-2 2l-1 1q-2 -2 1 -4l7 -5l-6 -6
l4 -4l7 6l7 -5q2 -1 4 1t0 3l-7 5l4 4l7 -5q3 -2 5 0t-1 4l-4 4l15 2l-3 6l-15 -3l1 13l-7 1l-1 -13l-5 4q-2 1 -4 -1h-1l3 -2l-2 -1l7 -5l-4 -4zM716 721v-33q62 0 105.5 -40t45.5 -98h39q2 67 -54 120t-136 51zM995 15h-51v305q0 32 -22 54.5t-54 22.5h-102q-13 0 -25 -5
v81q0 32 -22.5 54t-53.5 22h-51q-13 0 -26 -4v4q0 43 -29.5 72.5t-71.5 29.5h-102q-42 0 -72 -29.5t-30 -72.5v-80q-12 4 -25 4h-102q-32 0 -54.5 -22.5t-22.5 -53.5v-382h-50q-11 0 -18.5 -7.5t-7.5 -18t7.5 -18t18.5 -7.5h254h254h51h102h51h153h50h51q11 0 18.5 7.5
t7.5 18t-7.5 18t-18.5 7.5zM283 15h-153v356q0 21 15 36t36 15h51q21 0 36 -15t15 -36v-356zM537 15h-203v534q0 21 15 36t36 15h102q21 0 35.5 -15t14.5 -36v-534zM690 15h-102v433q0 21 15 35.5t36 14.5t36 -14.5t15 -35.5v-433zM894 15h-153v280q0 21 15 36t36 15h51
q21 0 36 -15t15 -36v-280zM952 549h43q0 81 -51 147q-44 58 -107.5 84t-120.5 24v-41q97 1 166 -62q69 -62 70 -152z" />
    <glyph glyph-name="uniE659" unicode="&#xe659;" 
d="M854 446q21 24 21 69q0 19 -12.5 36t-25.5 25l-13 7q0 97 -69 182q-25 33 -60.5 56.5t-67.5 34t-60.5 16.5t-45.5 7l-17 1q-6 -1 -17.5 -1.5t-43.5 -7t-61.5 -17.5t-66 -34t-62.5 -55q-68 -81 -68 -182q-2 -1 -5.5 -3t-12.5 -8.5t-15.5 -14t-12.5 -19t-6 -23.5
q0 -20 5.5 -37t11.5 -25l5 -7l-17 -11q-10 -7 -36 -32.5t-46.5 -55t-37 -77t-16.5 -98.5q0 -23 7.5 -38t19.5 -21t20.5 -7.5t18.5 -1.5q14 0 30 11.5t26 22.5l9 11q0 -5 1 -15t12 -34t31 -42q-2 -1 -6.5 -2.5t-14.5 -9t-18 -17t-15 -26.5t-7 -36q0 -33 29.5 -55.5t72 -31
t90.5 -4.5q44 3 93.5 20.5t76 32t26.5 15.5q12 -7 32.5 -18t74.5 -30t99 -20q42 -2 81.5 6t70 30t30.5 55q0 19 -6 36t-15 26.5t-18 16.5t-15 10l-6 2q43 37 43 91q4 -4 10 -11.5t22.5 -20.5t30.5 -13q24 -1 46 22.5t22 68.5q0 57 -16.5 104t-36.5 72.5t-46.5 44.5
t-36.5 23.5t-16 6.5zM915 195q-8 -6 -30 10t-38 36q-7 5 -12 0t-8 -14l-3 -9q-1 -6 -2 -15.5t-6.5 -35t-13.5 -47t-23 -43.5t-34 -32q-10 -23 3 -25q17 -3 41.5 -25t21.5 -35q-1 -7 -25 -9t-59 2t-63 14q-54 18 -94 35.5t-53 25.5l-13 7q-3 -3 -11.5 -9.5t-49.5 -24.5
t-98 -34q-34 -10 -84 -10t-53 10q-3 13 27.5 31.5t50.5 21.5q13 2 3 25q-30 15 -56 59.5t-37 77t-11 36.5l-1 1q0 1 -0.5 3t-1 4.5t-2 5t-2.5 4.5t-3 4t-4 2.5t-4 0.5t-5 -2q-5 -4 -22 -20.5t-28.5 -24t-17.5 -1.5q-22 23 34 104q9 13 21 26t26.5 25t24 19.5t25 18
t18.5 12.5q5 4 5 9.5t-2 9.5l-3 4q-4 3 -10 8.5t-15.5 23t-9.5 37.5q0 21 17 32t34 12l17 1q0 52 13 93.5t33 67t45 44t49.5 27t45 13.5t32.5 6h13q5 0 13 -0.5t31.5 -5t45 -13t47.5 -27.5t44.5 -44.5t31.5 -67t13 -93.5h7q5 0 16.5 -2.5t20.5 -6.5t16.5 -13.5t7.5 -22.5
q0 -20 -8 -37t-16 -24l-9 -8q-10 -15 0 -23q7 -4 37.5 -22t57.5 -38t41 -41q18 -26 22 -58.5t-11 -45.5z" />
    <glyph glyph-name="uniE65A" unicode="&#xe65a;" horiz-adv-x="1038" 
d="M241 68h540v90h-540v-90zM241 188h540v90h-540v-90zM781 879h-541q-99 0 -169.5 -70.5t-70.5 -169.5v-511q0 -100 70.5 -170.5t169.5 -70.5h541q100 0 170.5 70.5t70.5 170.5v511q0 99 -70.5 169.5t-170.5 70.5zM932 158q0 -75 -53 -127.5t-128 -52.5h-480
q-75 0 -128 52.5t-53 127.5v451q0 74 53 127t128 53h480q75 0 128 -53t53 -127v-451zM452 640q21 24 61 24q36 0 55 -17q18 -16 18 -46q0 -20 -16 -39q-8 -9 -19 -18q-45 -37 -55 -58q-11 -18 -11 -43v-11h45v11q0 21 10 37q9 14 26 27q37 30 45 38q20 25 20 58q0 44 -31 70
q-30 26 -84 26q-59 0 -93 -33q-32 -31 -32 -83h44q0 36 17 57zM531.5 388.5q-9.5 8.5 -23.5 8.5q-15 0 -24 -8q-10 -8 -10 -21q0 -12 10 -21t24 -9q13 0 24 9q9 8 9 21q0 12 -9.5 20.5z" />
    <glyph glyph-name="uniE65B" unicode="&#xe65b;" 
d="M638 332h-192l136 157q7 8 6 18.5t-9.5 17.5t-19 6t-17.5 -9l-171 -197q-4 -5 -6 -10q-1 -4 -1 -7q0 -11 7.5 -18t17.5 -7h192l-136 -157q-7 -8 -6 -18.5t9.5 -17.5t19.5 -6t18 9l170 197q4 5 6 11q1 3 1 7q0 10 -7.5 17t-17.5 7zM843 573q-116 154 -329 307
q-186 -153 -296 -270q-23 -22 -42 -48q-28 -34 -35 -55q-50 -93 -50 -199q0 -115 56.5 -212.5t154 -154t212 -56.5t212 56.5t154 154t56.5 212.5q0 149 -93 265zM513.5 -65q-101.5 0 -187.5 51.5t-135.5 140t-49.5 193.5q0 100 46 187h3q25 39 67.5 84.5t85 82t82.5 67
t64 47.5t25 17q50 -19 101.5 -56.5t89.5 -77.5t69 -78.5t47 -62.5l16 -23h3q47 -87 47 -187q0 -105 -50 -193.5t-136 -140t-187.5 -51.5z" />
    <glyph glyph-name="uniE65C" unicode="&#xe65c;" horiz-adv-x="1035" 
d="M613 353l27 -136l54 11l-44 215l-215 -43l11 -54l120 24q-12 -19 -29.5 -38t-48 -43t-77.5 -46t-105 -37q-64 -16 -130 2.5t-90 52.5q-15 22 -22 50t-5.5 42t0.5 18h-55q-1 -4 -1 -11t1.5 -27t6 -39t17 -43.5t31.5 -44.5q39 -40 101 -55.5t146 1.5q65 14 120 39.5t91 55
t58 54.5t38 52zM566.5 838q-92.5 0 -176 -36t-144.5 -96.5t-96.5 -144.5t-35.5 -176q0 -17 1 -34l54 13q-1 11 -1 21q0 108 53.5 199.5t145 145t199.5 53.5t200 -53.5t145 -145t53 -199.5t-53 -200t-145 -145t-200 -53q-121 0 -221 67l-39 -40q117 -82 260 -82
q93 0 176.5 36t144.5 96.5t96.5 144.5t35.5 176t-35.5 176t-96.5 144.5t-144.5 96.5t-176 36z" />
    <glyph glyph-name="uniE65D" unicode="&#xe65d;" 
d="M504.5 880q-102.5 0 -195.5 -40t-160.5 -107.5t-107.5 -160.5t-40 -195.5t40 -195.5t107.5 -160.5t160.5 -107.5t195.5 -40t195.5 40t160.5 107.5t107 160.5t39.5 195.5t-39.5 195.5t-107 160.5t-160.5 107.5t-195.5 40zM756 360q0 -14 -10 -24t-24 -10h-435
q-14 0 -24 10t-10 24v8q0 14 10 24t24 10h435q14 0 24 -10t10 -24v-8z" />
    <glyph glyph-name="uniE65E" unicode="&#xe65e;" horiz-adv-x="1036" 
d="M690 566q25 0 42.5 17.5t17.5 42.5v180q0 25 -17.5 42.5t-42.5 17.5t-42.5 -17.5t-17.5 -42.5v-180q0 -25 17.5 -42.5t42.5 -17.5zM780 356h-540v-90h540v90zM780 746v-75q0 -9 -2 -17q65 -10 108.5 -60.5t43.5 -117.5v-330q0 -75 -52.5 -127.5t-127.5 -52.5h-480
q-75 0 -127.5 52.5t-52.5 127.5v330q0 67 43.5 117.5t108.5 60.5q-2 8 -2 17v75q-99 0 -169.5 -70.5t-70.5 -169.5v-390q0 -100 70.5 -170t169.5 -70h540q100 0 170 70t70 170v390q0 99 -70 169.5t-170 70.5zM600 671v75h-180v-75q0 -8 -1 -15h183q-2 7 -2 15zM330 566
q25 0 42.5 17.5t17.5 42.5v180q0 25 -17.5 42.5t-42.5 17.5t-42.5 -17.5t-17.5 -42.5v-180q0 -25 17.5 -42.5t42.5 -17.5zM240 86h540v90h-540v-90z" />
    <glyph glyph-name="uniE65F" unicode="&#xe65f;" horiz-adv-x="1036" 
d="M690 566q25 0 42.5 17.5t17.5 42.5v180q0 25 -17.5 42.5t-42.5 17.5t-42.5 -17.5t-17.5 -42.5v-180q0 -25 17.5 -42.5t42.5 -17.5zM600 671v75h-180v-75q0 -8 -1 -15h183q-2 7 -2 15zM330 566q25 0 42.5 17.5t17.5 42.5v180q0 25 -17.5 42.5t-42.5 17.5t-42.5 -17.5
t-17.5 -42.5v-180q0 -25 17.5 -42.5t42.5 -17.5zM780 746v-75q0 -9 -2 -17q65 -10 108.5 -60.5t43.5 -117.5v-30h-840v30q0 67 43.5 117.5t108.5 60.5q-2 8 -2 17v75q-99 0 -169.5 -70.5t-70.5 -169.5v-390q0 -100 70.5 -170t169.5 -70h540q100 0 170 70t70 170v390
q0 99 -70 169.5t-170 70.5zM930 146q0 -75 -52.5 -127.5t-127.5 -52.5h-480q-75 0 -127.5 52.5t-52.5 127.5v210h840v-210z" />
    <glyph glyph-name="uniE660" unicode="&#xe660;" 
d="M728 600h-475q-12 0 -20 -8.5t-8 -20t8 -19.5t20 -8h475q12 0 20 8t8 19.5t-8 20t-20 8.5zM728 460h-475q-12 0 -20 -8t-8 -20t8 -20t20 -8h475q12 0 20 8t8 20t-8 20t-20 8zM984 125q-12 12 -13 16q-2 4 1 21q6 34 -4 49t-43 20q-17 2 -20 4.5t-11 17.5q-14 32 -31 38
q-5 2 -11 2q-12 0 -34 -13q-15 -8 -20 -8t-20 8q-22 13 -34 13q-6 0 -11 -2q-17 -6 -31 -38q-7 -15 -10.5 -17.5t-20.5 -4.5q-33 -5 -43 -20t-4 -49q3 -17 1 -21q-1 -4 -13 -15q-24 -25 -24 -43.5t24 -43.5q12 -11 13 -15q2 -4 -1 -22q-6 -34 4 -48.5t43 -19.5
q17 -2 20.5 -4.5t10.5 -18.5q14 -31 31 -37q5 -2 11 -2q12 0 34 13q16 8 20 8t20 -8q22 -13 34 -13q6 0 11 2q17 6 31 37q8 16 11 18.5t20 4.5q33 5 43 19.5t4 48.5q-3 18 -1 22q1 4 13 15q24 24 24 43t-24 43zM940 68q-17 -16 -20.5 -28t0.5 -35q3 -15 2 -18q-3 -2 -16 -4
q-23 -3 -33 -11q-10 -7 -20 -29q-5 -12 -8 -15q-3 1 -13 7q-21 12 -34 12t-34 -12q-10 -6 -13 -7q-3 3 -8 15q-10 22 -20 29.5t-33 10.5q-13 2 -16 4q-1 3 2 18q4 24 0 35q-3 11 -20 28q-12 12 -12 14.5t12 14.5q17 16 20.5 27.5t-0.5 35.5q-3 15 -2 18q3 2 16 4q23 3 33 11
q10 7 20 29q5 12 8 15q3 -1 13 -7q21 -12 34 -12t34 12q10 6 13 7q3 -3 8 -15q10 -22 20 -29q10 -8 33 -11q13 -2 16 -4q1 -3 -2 -18q-4 -24 -0.5 -35.5t20.5 -27.5q12 -12 12 -14.5t-12 -14.5zM560 -71h-307q-82 0 -139 57t-57 138v504q0 81 57 138.5t139 57.5h503
q81 0 138.5 -57.5t57.5 -138.5v-280q0 -11 8 -19.5t19.5 -8.5t20 8.5t8.5 19.5v4v304q0 92 -66 158t-158 66h-560q-92 0 -157.5 -66t-65.5 -158v-560q0 -92 65.5 -157.5t157.5 -65.5h336q12 0 20 8t8 19.5t-8 20t-20 8.5zM798 181q-41 0 -69.5 -29t-28.5 -69.5t28.5 -69.5
t69.5 -29t69.5 29t28.5 69.5t-28.5 69.5t-69.5 29zM798 41q-17 0 -29.5 12t-12.5 29.5t12.5 29.5t29.5 12t29.5 -12t12.5 -29.5t-12.5 -29.5t-29.5 -12z" />
    <glyph glyph-name="uniE661" unicode="&#xe661;" 
d="M803 170q-71 0 -116 -54l-336 206q13 29 13 60q0 33 -14 62l340 192q45 -49 113 -49q62 0 106.5 43t44.5 103.5t-44.5 103t-107 42.5t-106.5 -42.5t-44 -103.5q0 -33 15 -63l-341 -191q-45 50 -113 50q-62 0 -106.5 -43t-44.5 -103.5t44.5 -103.5t106.5 -43q70 0 115 51
l336 -206q-12 -27 -12 -58q0 -60 44 -103t106.5 -43t107 43t44.5 103.5t-44.5 103.5t-106.5 43zM803 838q45 0 76.5 -30.5t31.5 -74t-31.5 -74.5t-76.5 -31t-77 31t-32 74.5t32 74t77 30.5zM213 277q-45 0 -76.5 31t-31.5 74.5t31.5 74.5t76.5 31q54 0 86 -42q1 -3 2 -5
q3 -4 6 -6q15 -25 15 -53q0 -29 -16 -54l-2 -2q0 -1 -1 -3q-32 -46 -90 -46zM803 -82q-45 0 -77 31t-32 74q0 27 14 51q1 2 2.5 3.5t2.5 4.5q32 47 90 47q45 0 76.5 -31t31.5 -74.5t-31.5 -74.5t-76.5 -31zM803 -82z" />
    <glyph glyph-name="uniE662" unicode="&#xe662;" horiz-adv-x="1040" 
d="M717 512h-51q-21 0 -36 -15t-15 -36v-128q0 -21 15 -36t36 -15h51q21 0 36 15t15 36v128q0 21 -15 36t-36 15zM717 358q0 -10 -7.5 -17.5t-18 -7.5t-18 7.5t-7.5 17.5v77q0 11 7.5 18.5t18 7.5t18 -7.5t7.5 -18.5v-77zM1014 469l-154 262q-13 22 -38 32q-53 56 -131 56
h-358q-78 0 -131 -56q-24 -10 -37 -32l-155 -262q-16 -27 -7.5 -57t36.5 -46l115 -65v-199q0 -72 51 -112.5t128 -40.5h358q75 0 127.5 52.5t52.5 126.5v173l115 65q27 16 35.5 46t-7.5 57zM154 359l-67 38q-19 11 -24.5 31t5.5 38l86 146v-253zM647 768q0 -42 -39.5 -72
t-95.5 -30t-95 30t-39 72h269zM820 153q0 -63 -45.5 -108t-108.5 -45h-308q-63 0 -108 45t-45 108v462q0 56 36.5 99t91.5 52q1 -63 53.5 -107t126 -44t125.5 44t53 107q55 -9 92 -52t37 -99v-462zM938 397l-67 -38v253l86 -146q10 -18 4.5 -38t-23.5 -31z" />
    <glyph glyph-name="uniE663" unicode="&#xe663;" horiz-adv-x="1040" 
d="M835 559q0 6 -1.5 17t-9.5 41.5t-20 58.5t-37 62.5t-57.5 59t-84 41.5t-113.5 17q-207 0 -288 -167q-33 -67 -35 -130q-4 0 -11 -1t-26.5 -7t-37.5 -14t-39.5 -25t-37.5 -38.5t-26.5 -55.5t-10.5 -74q0 -44 14 -80t34 -57.5t48 -38t51 -23.5t48 -11.5t34 -5t14 -0.5h7
q4 0 11.5 7t7.5 20t-6.5 19.5t-13.5 7.5h-6q-4 0 -11 0.5t-26.5 4t-37.5 9t-39.5 18t-37.5 28.5t-26.5 42.5t-10.5 59.5t10.5 59.5t27 43t36.5 28.5t40 17.5t37 9t27 3.5h11q-1 7 -0.5 17.5t5.5 41t14 58.5t29 62.5t47.5 59t72.5 41.5t101 17q177 0 242 -167q27 -67 27 -130
q4 0 11 -0.5t26.5 -4t37.5 -9t39.5 -18t37.5 -29t26.5 -42.5t10.5 -58q0 -114 -120 -150q-37 -12 -69 -12h-7q-4 0 -11.5 -6.5t-7.5 -20.5t6.5 -20.5t13.5 -6.5h6q6 0 14.5 0.5t33.5 5t48 11.5t51 23.5t48 38t34 57.5t14 80q0 38 -10.5 70.5t-27 54t-36.5 38.5t-40.5 26.5
t-37 15.5t-26.5 8zM656 120l-117 -117v287q0 3 -0.5 7.5t-7.5 12t-19 7.5t-19 -7t-7 -13l-1 -7v-287l-117 117q-2 2 -5.5 4.5t-13 3t-17.5 -7.5t-8 -17t4 -14l4 -5l155 -156q1 -1 1 -2q5 -9 15 -12q5 -2 10 -1q17 0 23 15l156 156l5 5q3 3 3.5 13t-8.5 18t-17.5 8t-13.5 -4z
" />
    <glyph glyph-name="uniE664" unicode="&#xe664;" horiz-adv-x="1036" 
d="M477 641q-23 0 -39.5 -16.5t-16.5 -39.5t16.5 -39t39.5 -16t39 16t16 39t-16 39.5t-39 16.5zM255 641q-23 0 -39 -16.5t-16 -39.5t16 -39t39 -16t39 16t16 39t-16 39.5t-39 16.5zM1020 255q0 99 -76 175t-191 95q-12 123 -120 208t-256 85q-102 0 -189 -42.5
t-137.5 -116.5t-50.5 -161q0 -64 28.5 -122t80.5 -102q-7 -42 -7 -73q-1 -40 9 -48q6 -6 18 -6.5t27 3.5t30 9.5t31 13t25.5 12t18.5 9.5q52 -14 107 -15q31 -87 119 -142.5t201 -55.5q52 0 102 13q107 -57 132 -35q9 7 9 41q-1 26 -7 63q46 37 71 87t25 105zM355 264
q-40 3 -77 14q-5 1 -10 1q-12 1 -51 -25.5t-45 -23t2 48t0 53.5q-85 68 -85 165q0 96 84.5 164.5t203.5 68.5q109 0 190 -57.5t96 -143.5q-127 -8 -215.5 -83.5t-92.5 -181.5zM857 117q-7 -7 -0.5 -43.5t1.5 -39.5t-36.5 19.5t-45.5 21.5h-8q-39 -11 -80 -11
q-102 0 -173 55.5t-71 133.5t71 133t172.5 55t173 -55t71.5 -133q0 -80 -75 -136zM598.5 375q-18.5 0 -31.5 -13t-13 -31.5t13 -31.5t31.5 -13t31.5 13t13 31.5t-13 31.5t-31.5 13zM798.5 375q-18.5 0 -31.5 -13t-13 -31.5t13 -31.5t31.5 -13t31.5 13t13 31.5t-13 31.5
t-31.5 13z" />
    <glyph glyph-name="uniE665" unicode="&#xe665;" 
d="M554 565q-7 8 -17 8t-17.5 -7.5t-7.5 -17.5t8 -17l139 -139h-358q-10 0 -17 -7t-7 -17t7 -17.5t17 -7.5h341l-122 -122q-8 -7 -8 -17.5t7.5 -17.5t17.5 -7t17 7l172 173q8 7 8 17t-8 17zM504.5 880q-102.5 0 -196 -40t-161 -107.5t-107 -161t-39.5 -196t39.5 -195.5
t107 -160.5t161 -107.5t196 -40t195.5 40t160.5 107.5t107.5 160.5t40 195.5t-40 196t-107.5 161t-160.5 107.5t-195.5 40zM504 -95q-96 0 -183 37t-150 100t-100.5 150.5t-37.5 183.5t37.5 183t100.5 150t150 100.5t183 37.5t183.5 -37.5t150.5 -100.5t100.5 -150
t37.5 -183t-37.5 -183.5t-100.5 -150.5t-150.5 -100t-183.5 -37z" />
    <glyph glyph-name="uniE666" unicode="&#xe666;" 
d="M759 869v-989l-494 495z" />
    <glyph glyph-name="uniE667" unicode="&#xe667;" horiz-adv-x="1223" 
d="M1202 93h-1166l583 582z" />
    <glyph glyph-name="uniE668" unicode="&#xe668;" 
d="M265 -120v989l494 -494z" />
    <glyph glyph-name="uniE669" unicode="&#xe669;" horiz-adv-x="1223" 
d="M36 675h1166l-583 -582z" />
    <glyph glyph-name="uniE66A" unicode="&#xe66a;" 
d="M769.5 -81.5q-20.5 -20.5 -49 -20.5t-49.5 21l-416 423q-21 21 -21 50t21 50l416 424q21 21 49.5 21t49 -21t20.5 -50t-21 -50l-367 -374l367 -374q21 -20 21 -49.5t-20.5 -50z" />
    <glyph glyph-name="uniE66B" unicode="&#xe66b;" horiz-adv-x="1221" 
d="M62 676q-24 -23 -24 -56t24 -56l498 -472q24 -23 58.5 -23t58.5 23l498 472q24 24 24 56.5t-24 55.5t-58.5 23t-58.5 -23l-439 -417l-439 417q-25 23 -59 23t-59 -23z" />
    <glyph glyph-name="uniE66C" unicode="&#xe66c;" 
d="M242 -98.5q21 -20.5 51.5 -20.5t51.5 20l437 424q21 21 21 50t-21 50l-437 424q-21 20 -51.5 20t-51.5 -20.5t-21 -50t21 -49.5l385 -374l-385 -374q-21 -20 -21 -49.5t21 -50z" />
    <glyph glyph-name="uniE66D" unicode="&#xe66d;" horiz-adv-x="1223" 
d="M54 81q-25 24 -25 58t25 57l499 491q25 24 59 24t59 -24l499 -491q25 -23 25 -57t-24.5 -58t-59 -24t-59.5 24l-440 433l-441 -433q-24 -24 -58.5 -24t-58.5 24z" />
    <glyph glyph-name="uniE66F" unicode="&#xe66f;" horiz-adv-x="1036" 
d="M511 27q-131 0 -230.5 84t-122.5 211l-7 -1q-6 27 -35 34q-20 5 -37.5 -4.5t-22.5 -27.5l-51 -177q-6 -19 4.5 -35.5t30 -21.5t37.5 4.5t23 28.5l15 53q58 -108 164 -172.5t232 -64.5q147 0 263.5 85t162.5 220l-88 22q-38 -105 -130.5 -171.5t-207.5 -66.5zM985 654
q-19 5 -36.5 -4t-22.5 -28l-12 -38q-55 114 -163.5 183t-239.5 69q-148 0 -265.5 -87t-161.5 -224l81 -40q33 114 128.5 187.5t217.5 73.5q138 0 240 -91.5t117 -227.5l3 2q1 -14 10.5 -25.5t24.5 -15.5q19 -5 36.5 4.5t23.5 27.5l52 177q6 18 -4 35t-29 22z" />
    <glyph glyph-name="uniE670" unicode="&#xe670;" 
d="M504 880q-102 0 -195 -40t-160.5 -107.5t-107.5 -160.5t-40 -195.5t40 -195.5t107.5 -160.5t160.5 -107t195.5 -39.5t195.5 39.5t160.5 107t107 160.5t39.5 195.5t-39.5 195.5t-107 160.5t-160.5 107.5t-196 40v0zM68 318q-4 28 -4 59q0 89 35 170.5t94 140.5t140.5 94
t170.5 35q44 0 86 -9q-14 -8 -18 -13q-23 -28 0 -67q19 -31 20.5 -68t-11.5 -48q-7 -8 -31 -14.5t-35 -7.5q-42 -5 -61.5 -14.5t-31.5 -33.5q-10 -21 6 -54q2 -4 27 -47q24 -43 29 -69q7 -41 -13 -55q-9 -7 -28.5 -9t-23.5 0q-8 3 -27 16q0 1 -10 10l-20 18q-10 9 -24.5 17
t-26.5 8q-33 0 -84 -47q-28 -27 -48 -31q-29 -4 -51.5 -0.5t-56.5 18.5q-1 0 -3 1v0zM504 -63q-17 0 -34 1q-44 59 12 105q34 27 90 39.5t118 4.5q7 1 28 1h23q64 2 93.5 17t33.5 55q10 54 42 63q4 1 7 1q-47 -128 -159.5 -207.5t-253.5 -79.5v0zM898 272q-64 -17 -80 -105
q-1 -9 -19 -18t-43 -13q-15 -1 -27 -0.5t-25 1.5l-12 1q-69 8 -134.5 -7t-107.5 -49q-34 -28 -44.5 -63t2.5 -72q-119 27 -207.5 111t-120.5 201q54 -18 107 -9q36 6 75 44q6 5 24.5 18.5t22.5 12.5q48 -37 54 -42q25 -17 40 -22q8 -4 39.5 -1.5t49.5 11.5q23 12 37 43.5
t4 65.5q-14 49 -35 86q-11 19 -23 40l-8 14q5 9 15.5 13t38.5 7q14 1 49 12t48 25q15 16 17 56t-5.5 77.5t-18.5 53.5q-6 10 4 16t33 13q131 -46 213.5 -160t82.5 -256q0 -52 -11 -103q-18 2 -35 -2v0zM898 272z" />
    <glyph glyph-name="uniE671" unicode="&#xe671;" horiz-adv-x="1040" 
d="M506 635q-114 0 -195 -74.5t-81 -180t81 -180.5t195 -75t195 75t81 180.5t-81 180t-195 74.5zM506.5 171q-93.5 0 -160 61.5t-66.5 147.5t66.5 147.5t160 61.5t159.5 -61.5t66 -147.5t-66 -147.5t-159.5 -61.5zM121 397h-85q-15 0 -25.5 -7.5t-10.5 -18t10.5 -18
t25.5 -7.5h85q16 0 26.5 7.5t10.5 18t-10.5 18t-26.5 7.5zM260.5 605.5q7.5 7.5 5.5 19.5t-13 22l-61 55q-11 9 -24 10.5t-21 -6t-6 -19.5t13 -22l61 -54q11 -10 24.5 -11.5t21 6zM988 397h-86q-15 0 -25.5 -7.5t-10.5 -18t10.5 -18t25.5 -7.5h86q15 0 25.5 7.5t10.5 18
t-10.5 18t-25.5 7.5zM877 706.5q-8 7.5 -21 6t-24 -10.5l-61 -55q-11 -10 -13 -22t5.5 -19.5t21 -6t24.5 11.5l61 54q11 10 13 22t-6 19.5zM480 732q0 -14 8 -23.5t19.5 -9.5t19.5 10t8 24l-2 79q0 14 -8.5 23.5t-20 9.5t-19 -10t-7.5 -24zM626 62h-240q-15 0 -25.5 -7
t-10.5 -16.5t10.5 -16.5t25.5 -7h240q15 0 26 7t11 16.5t-11 16.5t-26 7zM589 -30h-166q-15 0 -25.5 -7t-10.5 -16.5t10.5 -16.5t25.5 -7h166q15 0 26 7t11 16.5t-11 16.5t-26 7z" />
    <glyph glyph-name="uniE672" unicode="&#xe672;" horiz-adv-x="1040" 
d="M991 496q-11 0 -19 -7.5t-8 -18.5v-467q0 -22 -15.5 -37.5t-37.5 -15.5h-804q-22 0 -37.5 15.5t-15.5 37.5v762q0 22 15.5 37t37.5 15h518q11 0 18.5 8t7.5 19t-7.5 18.5t-18.5 7.5h-523q-42 0 -72 -29t-30 -71v-772q0 -42 30 -71t72 -29h814q42 0 72 29t30 71v472
q0 11 -8 18.5t-19 7.5v0zM493 159l510 501q22 22 20.5 55.5t-27.5 58.5l-48 47q-25 25 -59 27t-57 -21l-509 -500l170 -168v0zM870 790q9 8 22 7.5t22 -9.5l48 -48q10 -9 10.5 -22t-7.5 -21l-57 -56l-94 94l56 55v0zM868 602l-379 -372l-94 93l379 373l94 -94v0zM323 326
l-53 -189q-4 -13 6 -23t24 -6l192 51l-40 39l-124 -33l34 122l-39 39v0zM323 326z" />
  </font>
</defs>
</svg>
